# 3ds Max Wavefront OBJ Exporter v0.99 - (c)2007 guruware
# File Created: 16.04.2023 12:24:04

mtllib Dirty Socks.mtl

#
# object Box001
#

v  0.0000 1.4785 -108.0355
v  0.0000 1.2612 -109.3765
v  -0.0000 -1.1435 -109.3765
v  0.0000 -1.0710 -108.0355
v  0.0163 -1.0710 -108.0355
v  0.0163 -1.1435 -109.3765
v  0.0163 1.2612 -109.3765
v  0.0163 1.4785 -108.0355
v  -0.0000 -0.6001 -113.3598
v  -0.0000 0.4643 -113.1464
v  0.0163 0.4643 -113.1464
v  0.0163 -0.6001 -113.3598
v  0.0000 1.1887 -110.7176
v  0.0163 1.1887 -110.7176
v  0.0000 0.5668 -105.6407
v  0.0000 -0.0568 -105.5798
v  0.0163 -0.0568 -105.5798
v  0.0163 0.5668 -105.6407
v  -0.0000 1.1833 -112.0586
v  -0.0000 -0.8330 -112.5493
v  -0.0000 -1.8317 -112.0834
v  -0.0000 -1.3608 -110.7176
v  0.0000 -0.8899 -106.7037
v  0.0000 -0.5777 -105.9697
v  0.0000 1.1443 -106.1676
v  0.0000 1.4423 -106.6944
v  0.0163 -1.8317 -112.0834
v  0.0163 -0.8330 -112.5493
v  0.0163 1.1833 -112.0586
v  0.0163 -1.3608 -110.7176
v  0.0163 1.4423 -106.6944
v  0.0163 1.1443 -106.1676
v  0.0163 -0.5777 -105.9697
v  0.0163 -0.8899 -106.7037
# 34 vertices

vn -0.6897 0.7229 -0.0408
vn -0.7174 0.6938 -0.0629
vn -0.7174 -0.6938 0.0629
vn -0.6995 -0.7124 0.0569
vn 0.6995 -0.7124 0.0569
vn 0.7173 -0.6939 0.0630
vn 0.7174 0.6938 -0.0629
vn 0.6897 0.7229 -0.0408
vn -0.5776 -0.4267 -0.6960
vn -0.6266 0.4707 -0.6211
vn 0.6268 0.4707 -0.6210
vn 0.5774 -0.4266 -0.6961
vn -0.7119 0.7021 -0.0171
vn 0.7119 0.7021 -0.0171
vn -0.6366 0.3498 0.6873
vn -0.6256 -0.2348 0.7440
vn 0.6256 -0.2348 0.7440
vn 0.6366 0.3498 0.6873
vn -0.6550 0.7311 -0.1909
vn 0.6268 -0.6199 -0.4721
vn -0.5901 -0.7464 -0.3077
vn -0.7240 -0.6748 0.1431
vn -0.6822 -0.7121 0.1659
vn -0.6554 -0.6260 0.4225
vn -0.6749 0.6113 0.4134
vn -0.6630 0.7284 0.1732
vn 0.5900 -0.7464 -0.3078
vn -0.6269 -0.6198 -0.4721
vn 0.6551 0.7310 -0.1909
vn 0.7240 -0.6748 0.1431
vn 0.6629 0.7284 0.1732
vn 0.6749 0.6112 0.4134
vn 0.6554 -0.6260 0.4225
vn 0.6822 -0.7121 0.1658
# 34 vertex normals

vt 0.4254 0.6625 0.0000
vt 0.4967 0.6404 0.0000
vt 0.5076 0.3472 0.0000
vt 0.3819 0.3537 0.0000
vt 0.3543 0.3504 0.0000
vt 0.4785 0.3432 0.0000
vt 0.5262 0.6371 0.0000
vt 0.3553 0.6887 0.0000
vt 0.4158 0.4695 0.0000
vt 0.4158 0.5047 0.0000
vt 0.4015 0.5047 0.0000
vt 0.4015 0.4695 0.0000
vt 0.4595 0.4162 0.0000
vt 0.4595 0.4397 0.0000
vt 0.4451 0.4397 0.0000
vt 0.4451 0.4162 0.0000
vt 0.4655 0.4008 0.0000
vt 0.5006 0.4008 0.0000
vt 0.5006 0.4152 0.0000
vt 0.4655 0.4152 0.0000
vt 0.4160 0.4414 0.0000
vt 0.4160 0.4277 0.0000
vt 0.4304 0.4277 0.0000
vt 0.4304 0.4414 0.0000
vt 0.7387 0.6274 0.0000
vt 0.8065 0.5453 0.0000
vt 0.8293 0.4289 0.0000
vt 0.7469 0.3822 0.0000
vt 0.7073 0.2614 0.0000
vt 0.6296 0.6410 0.0000
vt 0.5754 0.3250 0.0000
vt 0.2350 0.3846 0.0000
vt 0.1501 0.4497 0.0000
vt 0.1305 0.5347 0.0000
vt 0.1610 0.6237 0.0000
vt 0.2244 0.6779 0.0000
vt 0.3380 0.6860 0.0000
vt 0.7108 0.2541 0.0000
vt 0.7512 0.3781 0.0000
vt 0.8328 0.4236 0.0000
vt 0.7909 0.5753 0.0000
vt 0.7237 0.6314 0.0000
vt 0.6030 0.3137 0.0000
vt 0.6408 0.6517 0.0000
vt 0.2311 0.6821 0.0000
vt 0.1783 0.6462 0.0000
vt 0.1382 0.5852 0.0000
vt 0.1255 0.5045 0.0000
vt 0.1668 0.4136 0.0000
vt 0.2307 0.3817 0.0000
vt 0.4449 0.4162 0.0000
vt 0.4449 0.4414 0.0000
vt 0.4305 0.4414 0.0000
vt 0.4305 0.4162 0.0000
vt 0.4158 0.5398 0.0000
vt 0.4158 0.5756 0.0000
vt 0.4015 0.5756 0.0000
vt 0.4015 0.5398 0.0000
vt 0.4015 0.4346 0.0000
vt 0.4015 0.4154 0.0000
vt 0.4158 0.4154 0.0000
vt 0.4158 0.4346 0.0000
vt 0.5709 0.4008 0.0000
vt 0.5847 0.4008 0.0000
vt 0.5847 0.4152 0.0000
vt 0.5709 0.4152 0.0000
vt 0.5358 0.4008 0.0000
vt 0.5358 0.4152 0.0000
vt 0.4304 0.4152 0.0000
vt 0.4019 0.4152 0.0000
vt 0.4019 0.4008 0.0000
vt 0.4304 0.4008 0.0000
vt 0.5985 0.4008 0.0000
vt 0.5985 0.4152 0.0000
vt 0.4015 0.5976 0.0000
vt 0.4015 0.5758 0.0000
vt 0.4158 0.5758 0.0000
vt 0.4158 0.5976 0.0000
vt 0.4304 0.4162 0.0000
vt 0.4160 0.4162 0.0000
# 80 texture coords

o Box001
g Box001
usemtl 01___Default
s 2
f 1/1/1 2/2/2 3/3/3 4/4/4 
s 4
f 5/5/5 6/6/6 7/7/7 8/8/8 
s 8
f 4/9/4 3/10/3 6/11/6 5/12/5 
s 16
f 9/13/9 10/14/10 11/15/11 12/16/12 
s 32
f 13/17/13 2/18/2 7/19/7 14/20/14 
s 64
f 15/21/15 16/22/16 17/23/17 18/24/18 
s 2
f 19/25/19 10/26/10 9/27/9 20/28/20 21/29/21 
f 13/30/13 19/25/19 21/29/21 22/31/22 
f 2/2/2 13/30/13 22/31/22 3/3/3 
f 23/32/23 24/33/24 16/34/16 15/35/15 25/36/25 26/37/26 
f 4/4/4 23/32/23 26/37/26 1/1/1 
s 4
f 27/38/27 28/39/28 12/40/12 11/41/11 29/42/29 
f 30/43/30 27/38/27 29/42/29 14/44/14 
f 6/6/6 30/43/30 14/44/14 7/7/7 
f 31/45/31 32/46/32 18/47/18 17/48/17 33/49/33 34/50/34 
f 8/8/8 31/45/31 34/50/34 5/5/5 
s 8
f 21/51/21 20/52/20 28/53/28 27/54/27 
f 22/55/22 21/56/21 27/57/27 30/58/30 
f 3/10/3 22/55/22 30/58/30 6/11/6 
f 34/59/34 33/60/33 24/61/24 23/62/23 
f 5/12/5 34/59/34 23/62/23 4/9/4 
s 32
f 26/63/26 25/64/25 32/65/32 31/66/31 
f 1/67/1 26/63/26 31/66/31 8/68/8 
f 2/18/2 1/67/1 8/68/8 7/19/7 
f 29/69/29 11/70/11 10/71/10 19/72/19 
f 14/20/14 29/69/29 19/72/19 13/17/13 
f 25/64/25 15/73/15 18/74/18 32/65/32 
s 8
f 20/75/20 9/76/9 12/77/12 28/78/28 
f 33/79/33 17/23/17 16/22/16 24/80/24 
# 29 polygons

#
# object Box002
#

v  0.0766 2.5261 -108.7251
v  0.0766 1.9378 -109.9497
v  0.0766 -0.3684 -109.2685
v  0.0766 0.0809 -108.0029
v  0.0929 0.0809 -108.0029
v  0.0929 -0.3684 -109.2685
v  0.0929 1.9378 -109.9497
v  0.0929 2.5261 -108.7251
v  0.0766 -0.9757 -113.2425
v  0.0766 0.1056 -113.3394
v  0.0929 0.1056 -113.3394
v  0.0929 -0.9757 -113.2425
v  0.0766 1.4884 -111.2153
v  0.0929 1.4884 -111.2153
v  0.0766 2.3301 -106.1702
v  0.0766 1.7493 -105.9351
v  0.0929 1.7493 -105.9351
v  0.0929 2.3301 -106.1702
v  0.0766 1.1033 -112.4999
v  0.0766 -0.9694 -112.3993
v  0.0766 -1.7953 -111.6696
v  0.0766 -0.9567 -110.4931
v  0.0766 0.6319 -106.7770
v  0.0766 1.1392 -106.1616
v  0.0766 2.7347 -106.8391
v  0.0766 2.8712 -107.4288
v  0.0929 -1.7953 -111.6696
v  0.0929 -0.9694 -112.3993
v  0.0929 1.1033 -112.4999
v  0.0929 -0.9567 -110.4931
v  0.0929 2.8712 -107.4288
v  0.0929 2.7347 -106.8391
v  0.0929 1.1392 -106.1616
v  0.0929 0.6319 -106.7770
# 34 vertices

vn -0.6897 0.6817 -0.2439
vn -0.7174 0.6476 -0.2569
vn -0.7174 -0.6476 0.2569
vn -0.6995 -0.6671 0.2564
vn 0.6995 -0.6671 0.2564
vn 0.7173 -0.6476 0.2569
vn 0.7174 0.6475 -0.2569
vn 0.6897 0.6818 -0.2439
vn -0.5776 -0.6063 -0.5466
vn -0.6266 0.2755 -0.7290
vn 0.6268 0.2755 -0.7289
vn 0.5774 -0.6063 -0.5467
vn -0.7119 0.6685 -0.2153
vn 0.7119 0.6685 -0.2153
vn -0.6366 0.5301 0.5601
vn -0.6256 -0.0144 0.7800
vn 0.6256 -0.0144 0.7800
vn 0.6366 0.5301 0.5601
vn -0.6550 0.6470 -0.3902
vn 0.6268 -0.7282 -0.2772
vn -0.5901 -0.8030 -0.0837
vn -0.7240 -0.6066 0.3284
vn -0.6822 -0.6360 0.3608
vn -0.6554 -0.4807 0.5825
vn -0.6749 0.7034 0.2233
vn -0.6630 0.7476 -0.0402
vn 0.5900 -0.8030 -0.0837
vn -0.6269 -0.7281 -0.2772
vn 0.6551 0.6470 -0.3902
vn 0.7240 -0.6067 0.3284
vn 0.6629 0.7477 -0.0402
vn 0.6749 0.7033 0.2233
vn 0.6554 -0.4807 0.5825
vn 0.6822 -0.6360 0.3608
# 34 vertex normals

vt 0.4254 0.6625 0.0000
vt 0.4967 0.6404 0.0000
vt 0.5076 0.3472 0.0000
vt 0.3819 0.3537 0.0000
vt 0.3543 0.3504 0.0000
vt 0.4785 0.3432 0.0000
vt 0.5262 0.6371 0.0000
vt 0.3553 0.6887 0.0000
vt 0.4158 0.4695 0.0000
vt 0.4158 0.5047 0.0000
vt 0.4015 0.5047 0.0000
vt 0.4015 0.4695 0.0000
vt 0.4595 0.4162 0.0000
vt 0.4595 0.4397 0.0000
vt 0.4451 0.4397 0.0000
vt 0.4451 0.4162 0.0000
vt 0.4655 0.4008 0.0000
vt 0.5006 0.4008 0.0000
vt 0.5006 0.4152 0.0000
vt 0.4655 0.4152 0.0000
vt 0.4160 0.4414 0.0000
vt 0.4160 0.4277 0.0000
vt 0.4304 0.4277 0.0000
vt 0.4304 0.4414 0.0000
vt 0.7387 0.6274 0.0000
vt 0.8065 0.5453 0.0000
vt 0.8293 0.4289 0.0000
vt 0.7469 0.3822 0.0000
vt 0.7073 0.2614 0.0000
vt 0.6296 0.6410 0.0000
vt 0.5754 0.3250 0.0000
vt 0.2350 0.3846 0.0000
vt 0.1501 0.4497 0.0000
vt 0.1305 0.5347 0.0000
vt 0.1610 0.6237 0.0000
vt 0.2244 0.6779 0.0000
vt 0.3380 0.6860 0.0000
vt 0.7108 0.2541 0.0000
vt 0.7512 0.3781 0.0000
vt 0.8328 0.4236 0.0000
vt 0.7909 0.5753 0.0000
vt 0.7237 0.6314 0.0000
vt 0.6030 0.3137 0.0000
vt 0.6408 0.6517 0.0000
vt 0.2311 0.6821 0.0000
vt 0.1783 0.6462 0.0000
vt 0.1382 0.5852 0.0000
vt 0.1255 0.5045 0.0000
vt 0.1668 0.4136 0.0000
vt 0.2307 0.3817 0.0000
vt 0.4449 0.4162 0.0000
vt 0.4449 0.4414 0.0000
vt 0.4305 0.4414 0.0000
vt 0.4305 0.4162 0.0000
vt 0.4158 0.5398 0.0000
vt 0.4158 0.5756 0.0000
vt 0.4015 0.5756 0.0000
vt 0.4015 0.5398 0.0000
vt 0.4015 0.4346 0.0000
vt 0.4015 0.4154 0.0000
vt 0.4158 0.4154 0.0000
vt 0.4158 0.4346 0.0000
vt 0.5709 0.4008 0.0000
vt 0.5847 0.4008 0.0000
vt 0.5847 0.4152 0.0000
vt 0.5709 0.4152 0.0000
vt 0.5358 0.4008 0.0000
vt 0.5358 0.4152 0.0000
vt 0.4304 0.4152 0.0000
vt 0.4019 0.4152 0.0000
vt 0.4019 0.4008 0.0000
vt 0.4304 0.4008 0.0000
vt 0.5985 0.4008 0.0000
vt 0.5985 0.4152 0.0000
vt 0.4015 0.5976 0.0000
vt 0.4015 0.5758 0.0000
vt 0.4158 0.5758 0.0000
vt 0.4158 0.5976 0.0000
vt 0.4304 0.4162 0.0000
vt 0.4160 0.4162 0.0000
# 80 texture coords

o Box002
g Box002
usemtl 01___Default
s 2
f 35/81/35 36/82/36 37/83/37 38/84/38 
s 4
f 39/85/39 40/86/40 41/87/41 42/88/42 
s 8
f 38/89/38 37/90/37 40/91/40 39/92/39 
s 16
f 43/93/43 44/94/44 45/95/45 46/96/46 
s 32
f 47/97/47 36/98/36 41/99/41 48/100/48 
s 64
f 49/101/49 50/102/50 51/103/51 52/104/52 
s 2
f 53/105/53 44/106/44 43/107/43 54/108/54 55/109/55 
f 47/110/47 53/105/53 55/109/55 56/111/56 
f 36/82/36 47/110/47 56/111/56 37/83/37 
f 57/112/57 58/113/58 50/114/50 49/115/49 59/116/59 60/117/60 
f 38/84/38 57/112/57 60/117/60 35/81/35 
s 4
f 61/118/61 62/119/62 46/120/46 45/121/45 63/122/63 
f 64/123/64 61/118/61 63/122/63 48/124/48 
f 40/86/40 64/123/64 48/124/48 41/87/41 
f 65/125/65 66/126/66 52/127/52 51/128/51 67/129/67 68/130/68 
f 42/88/42 65/125/65 68/130/68 39/85/39 
s 8
f 55/131/55 54/132/54 62/133/62 61/134/61 
f 56/135/56 55/136/55 61/137/61 64/138/64 
f 37/90/37 56/135/56 64/138/64 40/91/40 
f 68/139/68 67/140/67 58/141/58 57/142/57 
f 39/92/39 68/139/68 57/142/57 38/89/38 
s 32
f 60/143/60 59/144/59 66/145/66 65/146/65 
f 35/147/35 60/143/60 65/146/65 42/148/42 
f 36/98/36 35/147/35 42/148/42 41/99/41 
f 63/149/63 45/150/45 44/151/44 53/152/53 
f 48/100/48 63/149/63 53/152/53 47/97/47 
f 59/144/59 49/153/49 52/154/52 66/145/66 
s 8
f 54/155/54 43/156/43 46/157/46 62/158/62 
f 67/159/67 51/103/51 50/102/50 58/160/58 
# 29 polygons

